<svg id="Layer_1" data-name="Layer 1" xmlns="http://www.w3.org/2000/svg" viewBox="0 0 371.27 190.46"><defs><style>.cls-1{fill:#231f20;}</style></defs><title>donno</title><path class="cls-1" d="M233,347.51c-3.4,38.53-22.15,75.09-51,100.82-7.27,6.51-15.53,13.38-24.58,17.23-4.6,2-9.87,3-14.36.2-4.09-2.54-6.55-7.15-8-11.58-6.94-20.49,1.06-44.79,9-63.91a182.19,182.19,0,0,1,31.12-49.86c12.66-14.45,28.5-29.64,46.53-37,9.12-3.74,20.25-5.23,28.28,1.73,6.81,5.92,9.47,15.58,10.41,24.23,2,18.6-1.78,37.84-8.85,55a150,150,0,0,1-31.94,47.51c-13.84,14.08-30.55,26.73-49.18,33.67-17.86,6.65-40,8.52-54.57-6.09-12-12-15-31.06-10.56-47,4.73-17,20.27-34.19,39.37-32.11,20.63,2.26,37.32,23.38,48.07,39.34,5.51,8.17,9.65,17,14.44,25.55,4,7.08,8.93,14.57,16.25,18.54,8.47,4.59,17.3,2.89,25.61-1.13,4.56-2.2,8.86-4.81,13.79-6.19A52.26,52.26,0,0,1,279.29,455c10.44.47,20.7,2.76,31.07,3.89a83.88,83.88,0,0,0,31.81-2.5c11.34-3.08,21.77-5.49,33.6-3.7,11.45,1.74,22.43,5.62,33.74,8,9.64,2,19.55,3,29.32,1.45,8.36-1.31,19.15-5.12,24-12.61,5.25-8.13-1.38-16.5-8-21.2-7.54-5.31-17.1-7-26.11-5.65-9.75,1.47-18.29,6.38-25.81,12.56-5,4.09,2.13,11.13,7.07,7.07,8.37-6.88,19.49-12,30.51-9.5a23,23,0,0,1,12,6.67c2.07,2.27,3.06,3.69.66,6a25.2,25.2,0,0,1-8.12,4.77c-21.69,8.53-45.19-3.84-66.59-7.17-12-1.87-23-.72-34.66,2.51s-22.2,4.62-34.25,3.24c-11.17-1.28-22.24-3.85-33.52-3.89-11.67-.05-21,3.68-31.25,8.77-4.36,2.16-9.22,4-14.08,2.42-4.43-1.46-7.82-5.15-10.48-8.84-5.81-8.09-9.47-17.55-14.61-26-11-18.1-26.36-37.9-46.12-46.82-18.85-8.52-39.08-2.42-52.06,13.23A62,62,0,0,0,95,440.68c4.08,18.19,17.11,33.34,35.39,38.17,20.43,5.4,42.37-1.67,60.17-11.76,35.21-19.95,64.14-54.45,75.37-93.52,5.24-18.22,7.74-39.82,1.75-58.18-2.81-8.63-8-16.79-16.07-21.29-9.32-5.19-20.41-4.65-30.22-1.2-19.58,6.88-36.84,22.44-50.64,37.53a193,193,0,0,0-33.94,51.68c-8.76,19.76-16.45,42.77-13.58,64.63,1.32,10,5,20.79,13.67,26.86,8.92,6.28,19.83,3.89,28.79-1C183.5,463,198.9,447.5,211,431.42a164.89,164.89,0,0,0,26.71-54.15A162.49,162.49,0,0,0,243,347.51c.56-6.41-9.44-6.37-10,0Z" transform="translate(-93.44 -290.25)"/></svg>