<?xml version="1.0" encoding="utf-8"?>
<!-- Generator: Adobe Illustrator 24.0.2, SVG Export Plug-In . SVG Version: 6.00 Build 0)  -->
<svg version="1.1" xmlns="http://www.w3.org/2000/svg" xmlns:xlink="http://www.w3.org/1999/xlink" x="0px" y="0px"
	width="841.9px" height="595.3px" viewBox="0 0 841.9 595.3" style="enable-background:new 0 0 841.9 595.3;"
	xml:space="preserve">
	<style type="text/css">
		.st0 {
			fill: #F2E4F0;
		}

		.st1 {
			fill: #EAE9F3;
		}

		.st2 {
			fill: #E0F3FC;
		}

		.st3 {
			fill: #F2F8E4;
		}

		.st4 {
			fill: #E0F2E8;
		}

		.st5 {
			fill: #E0F3F2;
		}

		.st6 {
			fill: #FFFBCC;
		}

		.st7 {
			fill: #FCE0EF;
		}

		.st8 {
			fill: #FCE1E3;
		}

		.st9 {
			fill: #FEF2E0;
		}

		.st10 {
			fill: #E0EDF6;
		}

		.st11 {
			fill: #E7F5E7;
		}

		.st12 {
			fill: #F8F9D9;
		}

		.st13 {
			fill: #EDE5F0;
		}

		.st14 {
			fill: #FCE0EA;
		}

		.st15 {
			fill: #F7E1F0;
		}

		.st16 {
			fill: #FAFAE0;
		}

		.st17 {
			fill: #0069B4;
		}

		.st18 {
			fill: #009A93;
		}

		.st19 {
			fill: #662483;
		}

		.st20 {
			fill: #312783;
		}

		.st21 {
			fill: #009FE3;
		}

		.st22 {
			fill: #009640;
		}

		.st23 {
			fill: #3AAA35;
		}

		.st24 {
			fill: #951B81;
		}

		.st25 {
			fill: #95C11F;
		}

		.st26 {
			fill: #C0087F;
		}

		.st27 {
			fill: #E6007E;
		}

		.st28 {
			fill: #E30613;
		}

		.st29 {
			fill: #FFED00;
		}

		.st30 {
			fill: #D3D800;
		}

		.st31 {
			fill: #E50051;
		}

		.st32 {
			fill: #F39200;
		}
	</style>
	<g id="Back">
		<g>
			<polygon class="st0" points="704.1,310.2 726.3,310.2 741.1,297.6 730.7,285 708.6,285 685.1,297.6 		" />
			<polygon class="st1" points="689.6,351.1 709.5,393.1 711.1,393.1 716.5,362 702.2,311.6 684.5,300.2 		" />
			<polygon class="st2" points="687,348.6 682.8,300.7 661.8,348.3 654,393.7 664.4,406.3 679.2,393.7 		" />
			<polygon class="st3" points="625.7,297.6 636.1,310.2 658.2,310.2 681.7,297.6 662.7,285 640.6,285 		" />
			<polygon class="st4" points="622.1,393.1 625.7,393.1 656.5,354.8 681.2,300.2 659.6,311.6 627.4,362 		" />
			<path class="st5"
				d="M621.2,395.4l-22.7,19.3c3.4,3.9,8.7,6.2,14.6,6.2H647l14.8-12.6l-10.4-12.6L621.2,395.4z" />
			<polygon class="st6" points="682.3,295.1 677.2,244.2 657.4,202.2 655.7,202.2 650.4,233.2 664.6,283.6 		" />
			<polygon class="st7" points="744.7,202.2 741.1,202.2 710.3,240.5 685.6,295.1 707.2,283.6 739.4,233.2 		" />
			<polygon class="st8" points="679.8,246.7 684,294.6 705,247 712.8,201.6 702.4,189 687.6,201.6 		" />
			<path class="st9" d="M686.2,199.6L701,187l-10.4-12.6h-33.9c-5.9,0-12.3,2.2-16.8,6.2l16,19.3L686.2,199.6z" />
			<path class="st10"
				d="M680.6,395.6l-14.8,12.6l10.4,12.6H710c5.9,0,12.3-2.2,16.8-6.2l-16-19.3L680.6,395.6z" />
			<path class="st11"
				d="M597.2,412.7l22.7-19.3l14-81.2l-10.4-12.6l-14.8,12.6L593.5,397C592.7,403.2,594.1,408.8,597.2,412.7z" />
			<path class="st12"
				d="M638.9,283.1l14.6-81.2l-16-19.3c-4.2,3.9-7.8,9.5-8.7,15.7l-15.1,84.8l10.4,12.6L638.9,283.1z" />
			<path class="st13"
				d="M727.9,312.2l-14.6,81.2l16,19.3c4.2-3.9,7.8-9.5,8.7-15.7l15.1-84.8l-10.4-12.3L727.9,312.2z" />
			<path class="st14"
				d="M745.6,199.9l22.7-19.3c-3.4-3.9-8.7-6.2-14.6-6.2h-33.9L705,187l10.4,12.6L745.6,199.9z" />
			<path class="st15"
				d="M733,283.1l10.4,12.6l14.8-12.6l15.1-84.8c0.8-6.2-0.6-11.8-3.6-15.7L747,201.9L733,283.1z" />
		</g>
		<g>
			<polygon class="st0" points="529.2,310.2 551.3,310.2 566.1,297.6 555.8,285 533.6,285 510.1,297.6 		" />
			<polygon class="st1" points="514.6,351.1 534.5,393.1 536.2,393.1 541.5,362 527.2,311.6 509.6,300.2 		" />
			<polygon class="st2" points="512.1,348.6 507.9,300.7 486.9,348.3 479,393.7 489.4,406.3 504.2,393.7 		" />
			<polygon class="st3" points="450.7,297.6 461.1,310.2 483.2,310.2 506.8,297.6 487.7,285 465.6,285 		" />
			<polygon class="st4" points="447.1,393.1 450.7,393.1 481.6,354.8 506.2,300.2 484.6,311.6 452.4,362 		" />
			<path class="st5"
				d="M446.3,395.4l-22.7,19.3c3.4,3.9,8.7,6.2,14.6,6.2H472l14.8-12.6l-10.4-12.6L446.3,395.4z" />
			<polygon class="st6" points="507.3,295.1 502.3,244.2 482.4,202.2 480.7,202.2 475.4,233.2 489.7,283.6 		" />
			<polygon class="st7" points="569.8,202.2 566.1,202.2 535.3,240.5 510.7,295.1 532.2,283.6 564.4,233.2 		" />
			<polygon class="st8" points="504.8,246.7 509,294.6 530,247 537.8,201.6 527.5,189 512.6,201.6 		" />
			<path class="st9"
				d="M511.2,199.6l14.8-12.6l-10.4-12.6h-33.9c-5.9,0-12.3,2.2-16.8,6.2l16,19.3L511.2,199.6z" />
			<path class="st10"
				d="M505.6,395.6l-14.8,12.6l10.4,12.6H535c5.9,0,12.3-2.2,16.8-6.2l-16-19.3L505.6,395.6z" />
			<path class="st11"
				d="M422.2,412.7l22.7-19.3l14-81.2l-10.4-12.6l-14.8,12.6L418.5,397C417.7,403.2,419.1,408.8,422.2,412.7z" />
			<path class="st12"
				d="M463.9,283.1l14.6-81.2l-16-19.3c-4.2,3.9-7.8,9.5-8.7,15.7l-15.1,84.8l10.4,12.6L463.9,283.1z" />
			<path class="st13"
				d="M553,312.2l-14.6,81.2l16,19.3c4.2-3.9,7.8-9.5,8.7-15.7l15.1-84.8l-10.4-12.3L553,312.2z" />
			<path class="st14"
				d="M570.6,199.9l22.7-19.3c-3.4-3.9-8.7-6.2-14.6-6.2h-33.9L530,187l10.4,12.6L570.6,199.9z" />
			<path class="st15"
				d="M558,283.1l10.4,12.6l14.8-12.6l15.1-84.8c0.8-6.2-0.6-11.8-3.6-15.7L572,201.9L558,283.1z" />
		</g>
		<g>
			<polygon class="st0" points="354.2,310.2 376.3,310.2 391.1,297.6 380.8,285 358.7,285 335.1,297.6 		" />
			<polygon class="st1" points="339.6,351.1 359.5,393.1 361.2,393.1 366.5,362 352.2,311.6 334.6,300.2 		" />
			<polygon class="st2" points="337.1,348.6 332.9,300.7 311.9,348.3 304.1,393.7 314.4,406.3 329.3,393.7 		" />
			<polygon class="st3" points="275.8,297.6 286.1,310.2 308.3,310.2 331.8,297.6 312.7,285 290.6,285 		" />
			<polygon class="st4" points="272.1,393.1 275.8,393.1 306.6,354.8 331.2,300.2 309.7,311.6 277.5,362 		" />
			<path class="st5"
				d="M271.3,395.4l-22.7,19.3c3.4,3.9,8.7,6.2,14.6,6.2h33.9l14.8-12.6l-10.4-12.6L271.3,395.4z" />
			<polygon class="st6" points="332.3,295.1 327.3,244.2 307.4,202.2 305.7,202.2 300.4,233.2 314.7,283.6 		" />
			<polygon class="st7" points="394.8,202.2 391.1,202.2 360.3,240.5 335.7,295.1 357.3,283.6 389.5,233.2 		" />
			<polygon class="st8" points="329.8,246.7 334,294.6 355,247 362.9,201.6 352.5,189 337.7,201.6 		" />
			<path class="st9"
				d="M336.3,199.6l14.8-12.6l-10.4-12.6h-33.9c-5.9,0-12.3,2.2-16.8,6.2l16,19.3L336.3,199.6z" />
			<path class="st10"
				d="M330.7,395.6l-14.8,12.6l10.4,12.6h33.9c5.9,0,12.3-2.2,16.8-6.2l-16-19.3L330.7,395.6z" />
			<path class="st11"
				d="M247.2,412.7l22.7-19.3l14-81.2l-10.4-12.6l-14.8,12.6L243.6,397C242.7,403.2,244.1,408.8,247.2,412.7z" />
			<path class="st16"
				d="M288.9,283.1l14.6-81.2l-16-19.3c-4.2,3.9-7.8,9.5-8.7,15.7l-15.1,84.8l10.4,12.6L288.9,283.1z" />
			<path class="st13"
				d="M378,312.2l-14.6,81.2l16,19.3c4.2-3.9,7.8-9.5,8.7-15.7l15.1-84.8l-10.4-12.3L378,312.2z" />
			<path class="st14"
				d="M395.6,199.9l22.7-19.3c-3.4-3.9-8.7-6.2-14.6-6.2h-33.9L355,187l10.4,12.6L395.6,199.9z" />
			<path class="st15"
				d="M383,283.1l10.4,12.6l14.8-12.6l15.1-84.8c0.8-6.2-0.6-11.8-3.6-15.7L397,201.9L383,283.1z" />
		</g>
		<g>
			<polygon class="st0" points="179.2,310.2 201.3,310.2 216.2,297.6 205.8,285 183.7,285 160.2,297.6 		" />
			<polygon class="st1" points="164.6,351.1 184.5,393.1 186.2,393.1 191.5,362 177.2,311.6 159.6,300.2 		" />
			<polygon class="st2" points="162.1,348.6 157.9,300.7 136.9,348.3 129.1,393.7 139.4,406.3 154.3,393.7 		" />
			<polygon class="st3" points="100.8,297.6 111.2,310.2 133.3,310.2 156.8,297.6 137.8,285 115.6,285 		" />
			<polygon class="st4" points="97.2,393.1 100.8,393.1 131.6,354.8 156.2,300.2 134.7,311.6 102.5,362 		" />
			<path class="st5"
				d="M96.3,395.4l-22.7,19.3c3.4,3.9,8.7,6.2,14.6,6.2h33.9l14.8-12.6l-10.4-12.6L96.3,395.4z" />
			<polygon class="st6" points="157.4,295.1 152.3,244.2 132.4,202.2 130.8,202.2 125.4,233.2 139.7,283.6 		" />
			<polygon class="st7" points="219.8,202.2 216.2,202.2 185.4,240.5 160.7,295.1 182.3,283.6 214.5,233.2 		" />
			<polygon class="st8" points="154.8,246.7 159,294.6 180,247 187.9,201.6 177.5,189 162.7,201.6 		" />
			<path class="st9"
				d="M161.3,199.6l14.8-12.6l-10.4-12.6h-33.9c-5.9,0-12.3,2.2-16.8,6.2l16,19.3L161.3,199.6z" />
			<path class="st10"
				d="M155.7,395.6l-14.8,12.6l10.4,12.6h33.9c5.9,0,12.3-2.2,16.8-6.2l-16-19.3L155.7,395.6z" />
			<path class="st11"
				d="M72.2,412.7l22.7-19.3l14-81.2l-10.4-12.6l-14.8,12.6L68.6,397C67.8,403.2,69.2,408.8,72.2,412.7z" />
			<path class="st12"
				d="M114,283.1l14.6-81.2l-16-19.3c-4.2,3.9-7.8,9.5-8.7,15.7l-15.1,84.8l10.4,12.6L114,283.1z" />
			<path class="st13"
				d="M203,312.2l-14.6,81.2l16,19.3c4.2-3.9,7.8-9.5,8.7-15.7l15.1-84.8l-10.4-12.3L203,312.2z" />
			<path class="st14"
				d="M220.6,199.9l22.7-19.3c-3.4-3.9-8.7-6.2-14.6-6.2h-33.9L180,187l10.4,12.6L220.6,199.9z" />
			<path class="st15"
				d="M208,283.1l10.4,12.6l14.8-12.6l15.1-84.8c0.8-6.2-0.6-11.8-3.6-15.7L222,201.9L208,283.1z" />
		</g>
	</g>
	<g id="Grafica">
		<g id="D">
			<path id="D16" class="st17" onclick="_switch(this.id)" style="" 
				d="M680.6,395.6l-14.8,12.6l10.4,12.6h33.9c5.9,0,12.3-2.2,16.8-6.2l-16-19.3L680.6,395.6z" />
			<path id="D15" class="st18" onclick="_switch(this.id)" style="" 
				d="M621.2,395.4l-22.7,19.3c3.4,3.9,8.7,6.2,14.6,6.2H647l14.8-12.6l-10.4-12.6L621.2,395.4z" />
			<path id="D14" class="st19" onclick="_switch(this.id)" style="" 
				d="M727.9,312.2l-14.6,81.2l16,19.3c4.2-3.9,7.8-9.5,8.7-15.7l15.1-84.8l-10.4-12.3L727.9,312.2z" />
			<path id="D13" class="st20"  onclick="_switch(this.id)" style="" d="M689.5,351.1l19.9,42h1.7l5.3-31.1l-14.3-50.4l-17.6-11.4L689.5,351.1z" />
			<path id="D12" class="st21"  onclick="_switch(this.id)" style="" d="M687,348.6l-4.2-47.9l-21,47.6l-7.8,45.4l10.3,12.6l14.9-12.6L687,348.6z" />
			<path id="D11" class="st22"  onclick="_switch(this.id)" style="" d="M622.1,393.1h3.6l30.8-38.3l24.6-54.6l-21.5,11.4L627.4,362L622.1,393.1z" />
			<path id="D10" class="st23"  onclick="_switch(this.id)" style="" d="M597.1,412.7l22.7-19.3l14-81.2l-10.4-12.6l-14.8,12.6L593.5,397
			C592.7,403.2,594.1,408.8,597.1,412.7z" />
			<path id="D09" class="st24"  onclick="_switch(this.id)" style="" d="M704.1,310.2h22.1l14.9-12.6L730.7,285h-22.1l-23.5,12.6L704.1,310.2z" />
			<path id="D08" class="st25"  onclick="_switch(this.id)" style="" d="M625.7,297.6l10.4,12.6h22.1l23.5-12.6l-19-12.6h-22.2L625.7,297.6z" />
			<path id="D07" class="st26" onclick="_switch(this.id)" style="" 
				d="M732.9,283.1l10.4,12.6l14.8-12.6l15.1-84.8c0.8-6.2-0.6-11.8-3.6-15.7l-22.7,19.3L732.9,283.1z" />
			<path id="D06" class="st27"  onclick="_switch(this.id)" style="" d="M744.7,202.2h-3.6l-30.8,38.3l-24.7,54.6l21.6-11.5l32.2-50.4L744.7,202.2z" />
			<path id="D05" class="st28"  onclick="_switch(this.id)" style="" d="M679.7,246.7l4.2,47.9l21-47.6l7.9-45.4L702.4,189l-14.8,12.6L679.7,246.7z" />
			<path id="D04" class="st29"  onclick="_switch(this.id)" style="" d="M682.3,295.1l-5.1-50.9l-19.9-42h-1.6l-5.4,31l14.3,50.4L682.3,295.1z" />
			<path id="D03" class="st30" onclick="_switch(this.id)" style="" 
				d="M638.9,283.1l14.6-81.2l-16-19.3c-4.2,3.9-7.8,9.5-8.7,15.7l-15.1,84.8l10.4,12.6L638.9,283.1z" />
			<path id="D02" class="st31" onclick="_switch(this.id)" style="" 
				d="M745.5,199.9l22.7-19.3c-3.4-3.9-8.7-6.2-14.6-6.2h-33.9L704.9,187l10.4,12.6L745.5,199.9z" />
			<path id="D01" class="st32" onclick="_switch(this.id)" style="" 
				d="M686.2,199.6L701,187l-10.4-12.6h-33.9c-5.9,0-12.3,2.2-16.8,6.2l16,19.3L686.2,199.6z" />
		</g>
		<g id="C">
			<path id="C16" class="st17" onclick="_switch(this.id)" style="" 
				d="M505.6,395.6l-14.8,12.6l10.4,12.6h33.9c5.9,0,12.3-2.2,16.8-6.2l-16-19.3L505.6,395.6z" />
			<path id="C15" class="st18" onclick="_switch(this.id)" style="" 
				d="M446.2,395.4l-22.7,19.3c3.4,3.9,8.7,6.2,14.6,6.2H472l14.8-12.6l-10.4-12.6L446.2,395.4z" />
			<path id="C14" class="st19" onclick="_switch(this.id)" style="" 
				d="M552.9,312.2l-14.6,81.2l16,19.3c4.2-3.9,7.8-9.5,8.7-15.7l15.1-84.8l-10.4-12.3L552.9,312.2z" />
			<path id="C13" class="st20"  onclick="_switch(this.id)" style="" d="M514.5,351.1l19.9,42h1.7l5.3-31.1l-14.3-50.4l-17.6-11.4L514.5,351.1z" />
			<path id="C12" class="st21"  onclick="_switch(this.id)" style="" d="M512,348.6l-4.2-47.9l-21,47.6l-7.8,45.4l10.3,12.6l14.9-12.6L512,348.6z" />
			<path id="C11" class="st22"  onclick="_switch(this.id)" style="" d="M447.1,393.1h3.6l30.8-38.3l24.6-54.6l-21.5,11.4L452.4,362L447.1,393.1z" />
			<path id="C10" class="st23"  onclick="_switch(this.id)" style="" d="M422.1,412.7l22.7-19.3l14-81.2l-10.4-12.6l-14.8,12.6L418.5,397
			C417.7,403.2,419.1,408.8,422.1,412.7L422.1,412.7z" />
			<path id="C09" class="st24"  onclick="_switch(this.id)" style="" d="M529.1,310.2h22.1l14.9-12.6L555.7,285h-22.1l-23.5,12.6L529.1,310.2z" />
			<path id="C08" class="st25"  onclick="_switch(this.id)" style="" d="M450.7,297.6l10.4,12.6h22.1l23.5-12.6l-19-12.6h-22.2L450.7,297.6z" />
			<path id="C07" class="st26" onclick="_switch(this.id)" style="" 
				d="M557.9,283.1l10.4,12.6l14.8-12.6l15.1-84.8c0.8-6.2-0.6-11.8-3.6-15.7l-22.7,19.3L557.9,283.1z" />
			<path id="C06" class="st27"  onclick="_switch(this.id)" style="" d="M569.7,202.2h-3.6l-30.8,38.3l-24.7,54.6l21.6-11.5l32.2-50.4L569.7,202.2z" />
			<path id="C05" class="st28"  onclick="_switch(this.id)" style="" d="M504.7,246.7l4.2,47.9l21-47.6l7.9-45.4L527.4,189l-14.8,12.6L504.7,246.7z" />
			<path id="C04" class="st29"  onclick="_switch(this.id)" style="" d="M507.3,295.1l-5.1-50.9l-19.9-42h-1.6l-5.4,31l14.3,50.4L507.3,295.1z" />
			<path id="C03" class="st30" onclick="_switch(this.id)" style="" 
				d="M463.9,283.1l14.6-81.2l-16-19.3c-4.2,3.9-7.8,9.5-8.7,15.7l-15.1,84.8l10.4,12.6L463.9,283.1z" />
			<path id="C02" class="st31" onclick="_switch(this.id)" style="" 
				d="M570.5,199.9l22.7-19.3c-3.4-3.9-8.7-6.2-14.6-6.2h-33.9L529.9,187l10.4,12.6L570.5,199.9z" />
			<path id="C01" class="st32" onclick="_switch(this.id)" style="" 
				d="M511.2,199.6L526,187l-10.4-12.6h-33.9c-5.9,0-12.3,2.2-16.8,6.2l16,19.3L511.2,199.6z" />
		</g>
		<g id="B">
			<path id="B16" class="st17" onclick="_switch(this.id)" style="" 
				d="M330.7,395.6l-14.8,12.6l10.4,12.6h33.9c5.9,0,12.3-2.2,16.8-6.2l-16-19.3L330.7,395.6z" />
			<path id="B15" class="st18" onclick="_switch(this.id)" style="" 
				d="M271.3,395.4l-22.7,19.3c3.4,3.9,8.7,6.2,14.6,6.2h33.9l14.8-12.6l-10.4-12.6L271.3,395.4z" />
			<path id="B14" class="st19" onclick="_switch(this.id)" style="" 
				d="M378,312.2l-14.6,81.2l16,19.3c4.2-3.9,7.8-9.5,8.7-15.7l15.1-84.8l-10.4-12.3L378,312.2z" />
			<path id="B13" class="st20"  onclick="_switch(this.id)" style="" d="M339.6,351.1l19.9,42h1.7l5.3-31.1l-14.3-50.4l-17.6-11.4L339.6,351.1z" />
			<path id="B12" class="st21" onclick="_switch(this.id)" style="" 
				d="M337.1,348.6l-4.2-47.9l-21,47.6l-7.8,45.4l10.3,12.6l14.9-12.6L337.1,348.6z" />
			<path id="B11" class="st22"  onclick="_switch(this.id)" style="" d="M272.2,393.1h3.6l30.8-38.3l24.6-54.6l-21.5,11.4L277.5,362L272.2,393.1z" />
			<path id="B10" class="st23"  onclick="_switch(this.id)" style="" d="M247.2,412.7l22.7-19.3l14-81.2l-10.4-12.6l-14.8,12.6L243.6,397
			C242.8,403.2,244.2,408.8,247.2,412.7L247.2,412.7z" />
			<path id="B09" class="st24"  onclick="_switch(this.id)" style="" d="M354.2,310.2h22.1l14.9-12.6L380.8,285h-22.1l-23.5,12.6L354.2,310.2z" />
			<path id="B08" class="st25"  onclick="_switch(this.id)" style="" d="M275.8,297.6l10.4,12.6h22.1l23.5-12.6l-19-12.6h-22.2L275.8,297.6z" />
			<path id="B07" class="st26" onclick="_switch(this.id)" style="" 
				d="M383,283.1l10.4,12.6l14.8-12.6l15.1-84.8c0.8-6.2-0.6-11.8-3.6-15.7L397,201.9L383,283.1z" />
			<path id="B06" class="st27"  onclick="_switch(this.id)" style="" d="M394.8,202.2h-3.6l-30.8,38.3l-24.7,54.6l21.6-11.5l32.2-50.4L394.8,202.2z" />
			<path id="B05" class="st28"  onclick="_switch(this.id)" style="" d="M329.8,246.7l4.2,47.9l21-47.6l7.9-45.4L352.5,189l-14.8,12.6L329.8,246.7z" />
			<path id="B04" class="st29"  onclick="_switch(this.id)" style="" d="M332.4,295.1l-5.1-50.9l-19.9-42h-1.6l-5.4,31l14.3,50.4L332.4,295.1z" />
			<path id="B03" class="st30" onclick="_switch(this.id)" style="" 
				d="M289,283.1l14.6-81.2l-16-19.3c-4.2,3.9-7.8,9.5-8.7,15.7l-15.1,84.8l10.4,12.6L289,283.1z" />
			<path id="B02" class="st31" onclick="_switch(this.id)" style="" 
				d="M395.6,199.9l22.7-19.3c-3.4-3.9-8.7-6.2-14.6-6.2h-33.9L355,187l10.4,12.6L395.6,199.9z" />
			<path id="B01" class="st32" onclick="_switch(this.id)" style="" 
				d="M336.3,199.6l14.8-12.6l-10.4-12.6h-33.9c-5.9,0-12.3,2.2-16.8,6.2l16,19.3L336.3,199.6z" />
		</g>
		<g id="A">
			<path id="A16" class="st17" onclick="_switch(this.id)" style="" 
				d="M155.7,395.6l-14.8,12.6l10.4,12.6h33.9c5.9,0,12.3-2.2,16.8-6.2l-16-19.3L155.7,395.6z" />
			<path id="A15" class="st18" onclick="_switch(this.id)" style="" 
				d="M96.3,395.4l-22.7,19.3c3.4,3.9,8.7,6.2,14.6,6.2h33.9l14.8-12.6l-10.4-12.6L96.3,395.4z" />
			<path id="A14" class="st19" onclick="_switch(this.id)"  style="" 
				d="M203,312.2l-14.6,81.2l16,19.3c4.2-3.9,7.8-9.5,8.7-15.7l15.1-84.8l-10.4-12.3L203,312.2z" />
			<path id="A13" class="st20"  onclick="_switch(this.id)"  style="" d="M164.6,351.1l19.9,42h1.7l5.3-31.1l-14.3-50.4l-17.6-11.4L164.6,351.1z" />
			<path id="A12" class="st21" onclick="_switch(this.id)"  style="" 
				d="M162.1,348.6l-4.2-47.9l-21,47.6l-7.8,45.4l10.3,12.6l14.9-12.6L162.1,348.6z" />
			<path id="A11" class="st22"  onclick="_switch(this.id)"  style="" d="M97.2,393.1h3.6l30.8-38.3l24.6-54.6l-21.5,11.4L102.5,362L97.2,393.1z" />
			<path id="A10" class="st23" onclick="_switch(this.id)"  style="" 
				d="M72.2,412.7l22.7-19.3l14-81.2l-10.4-12.6l-14.8,12.6L68.6,397C67.8,403.2,69.2,408.8,72.2,412.7z" />
			<path id="A09" class="st24"  onclick="_switch(this.id)"  style="" d="M179.2,310.2h22.1l14.9-12.6L205.8,285h-22.1l-23.5,12.6L179.2,310.2z" />
			<path id="A08" class="st25"  onclick="_switch(this.id)"  style="" d="M100.8,297.6l10.4,12.6h22.1l23.5-12.6l-19-12.6h-22.2L100.8,297.6z" />
			<path id="A07" class="st26" onclick="_switch(this.id)"  style="" 
				d="M208,283.1l10.4,12.6l14.8-12.6l15.1-84.8c0.8-6.2-0.6-11.8-3.6-15.7L222,201.9L208,283.1z" />
			<path id="A06" class="st27"  onclick="_switch(this.id)"  style="" d="M219.8,202.2h-3.6l-30.8,38.3l-24.7,54.6l21.6-11.5l32.2-50.4L219.8,202.2z" />
			<path id="A05" class="st28"  onclick="_switch(this.id)"  style="" d="M154.8,246.7l4.2,47.9l21-47.6l7.9-45.4L177.5,189l-14.8,12.6L154.8,246.7z" />
			<path id="A04" class="st29"  onclick="_switch(this.id)"  style="" d="M157.4,295.1l-5.1-50.9l-19.9-42h-1.6l-5.4,31l14.3,50.4L157.4,295.1z" />
			<path id="A03" class="st30" onclick="_switch(this.id)"  style="" 
				d="M114,283.1l14.6-81.2l-16-19.3c-4.2,3.9-7.8,9.5-8.7,15.7l-15.1,84.8l10.4,12.6L114,283.1z" />
			<path id="A02" class="st31" onclick="_switch(this.id)"  style="" 
				d="M220.6,199.9l22.7-19.3c-3.4-3.9-8.7-6.2-14.6-6.2h-33.9L180,187l10.4,12.6L220.6,199.9z" />
			<path id="A01" class="st32" onclick="_switch(this.id)"  style="" 
				d="M161.3,199.6l14.8-12.6l-10.4-12.6h-33.9c-5.9,0-12.3,2.2-16.8,6.2l16,19.3L161.3,199.6z" />
		</g>
	</g>
	<script type="text/javascript">
		<![CDATA[
		function turn(id, state) 
		{
			if (state) document.getElementById(id).setAttribute('style', "");
			else document.getElementById(id).setAttribute('style', "visibility:hidden;");
		}

		function _switch(id)
		{
			if(document.getElementById(id).getAttribute('style') == "") document.getElementById(id).setAttribute('style', "opacity:0%;");
			else document.getElementById(id).setAttribute('style', "");
		}

		function A(x) {
			turn(x + "01", true);
			turn(x + "02", true);
			turn(x + "03", true);
			turn(x + "04", false);
			turn(x + "05", false);
			turn(x + "06", false);
			turn(x + "07", true);
			turn(x + "08", true);
			turn(x + "09", true);
			turn(x + "10", true);
			turn(x + "11", false);
			turn(x + "12", false);
			turn(x + "13", false);
			turn(x + "14", true);
			turn(x + "15", false);
			turn(x + "16", false);
		}

		function B(x) {
			turn(x + "01", true);
			turn(x + "02", true);
			turn(x + "03", false);
			turn(x + "04", false);
			turn(x + "05", true);
			turn(x + "06", false);
			turn(x + "07", true);
			turn(x + "08", true);
			turn(x + "09", true);
			turn(x + "10", false);
			turn(x + "11", false);
			turn(x + "12", true);
			turn(x + "13", false);
			turn(x + "14", true);
			turn(x + "15", true);
			turn(x + "16", true);
		}

		function C(x) {
			turn(x + "01", true);
			turn(x + "02", true);
			turn(x + "03", true);
			turn(x + "04", false);
			turn(x + "05", false);
			turn(x + "06", false);
			turn(x + "07", false);
			turn(x + "08", false);
			turn(x + "09", false);
			turn(x + "10", true);
			turn(x + "11", false);
			turn(x + "12", false);
			turn(x + "13", false);
			turn(x + "14", false);
			turn(x + "15", true);
			turn(x + "16", true);
		}


		function D(x) {
			turn(x + "01", true);
			turn(x + "02", true);
			turn(x + "03", false);
			turn(x + "04", false);
			turn(x + "05", true);
			turn(x + "06", false);
			turn(x + "07", true);
			turn(x + "08", false);
			turn(x + "09", false);
			turn(x + "10", false);
			turn(x + "11", false);
			turn(x + "12", true);
			turn(x + "13", false);
			turn(x + "14", true);
			turn(x + "15", true);
			turn(x + "16", true);
		}


		function E(x) {
			turn(x + "01", true);
			turn(x + "02", true);
			turn(x + "03", true);
			turn(x + "04", false);
			turn(x + "05", false);
			turn(x + "06", false);
			turn(x + "07", false);
			turn(x + "08", true);
			turn(x + "09", true);
			turn(x + "10", true);
			turn(x + "11", false);
			turn(x + "12", false);
			turn(x + "13", false);
			turn(x + "14", false);
			turn(x + "15", true);
			turn(x + "16", true);
		}


		function F(x) {
			turn(x + "01", true);
			turn(x + "02", true);
			turn(x + "03", true);
			turn(x + "04", false);
			turn(x + "05", false);
			turn(x + "06", false);
			turn(x + "07", false);
			turn(x + "08", true);
			turn(x + "09", true);
			turn(x + "10", true);
			turn(x + "11", false);
			turn(x + "12", false);
			turn(x + "13", false);
			turn(x + "14", false);
			turn(x + "15", false);
			turn(x + "16", false);
		}


		function G(x) {
			turn(x + "01", true);
			turn(x + "02", true);
			turn(x + "03", true);
			turn(x + "04", false);
			turn(x + "05", false);
			turn(x + "06", false);
			turn(x + "07", false);
			turn(x + "08", false);
			turn(x + "09", true);
			turn(x + "10", true);
			turn(x + "11", false);
			turn(x + "12", false);
			turn(x + "13", false);
			turn(x + "14", true);
			turn(x + "15", true);
			turn(x + "16", true);
		}


		function H(x) {
			turn(x + "01", false);
			turn(x + "02", false);
			turn(x + "03", true);
			turn(x + "04", false);
			turn(x + "05", false);
			turn(x + "06", false);
			turn(x + "07", true);
			turn(x + "08", true);
			turn(x + "09", true);
			turn(x + "10", true);
			turn(x + "11", false);
			turn(x + "12", false);
			turn(x + "13", false);
			turn(x + "14", true);
			turn(x + "15", false);
			turn(x + "16", false);
		}


		function I(x) {
			turn(x + "01", true);
			turn(x + "02", true);
			turn(x + "03", false);
			turn(x + "04", false);
			turn(x + "05", true);
			turn(x + "06", false);
			turn(x + "07", false);
			turn(x + "08", false);
			turn(x + "09", false);
			turn(x + "10", false);
			turn(x + "11", false);
			turn(x + "12", true);
			turn(x + "13", false);
			turn(x + "14", false);
			turn(x + "15", true);
			turn(x + "16", true);
		}


		function J(x) {
			turn(x + "01", false);
			turn(x + "02", false);
			turn(x + "03", false);
			turn(x + "04", false);
			turn(x + "05", false);
			turn(x + "06", false);
			turn(x + "07", true);
			turn(x + "08", false);
			turn(x + "09", false);
			turn(x + "10", true);
			turn(x + "11", false);
			turn(x + "12", false);
			turn(x + "13", false);
			turn(x + "14", true);
			turn(x + "15", true);
			turn(x + "16", true);
		}


		function K(x) {
			turn(x + "01", false);
			turn(x + "02", false);
			turn(x + "03", true);
			turn(x + "04", false);
			turn(x + "05", false);
			turn(x + "06", true);
			turn(x + "07", false);
			turn(x + "08", true);
			turn(x + "09", false);
			turn(x + "10", true);
			turn(x + "11", false);
			turn(x + "12", false);
			turn(x + "13", true);
			turn(x + "14", false);
			turn(x + "15", false);
			turn(x + "16", false);
		}


		function L(x) {
			turn(x + "01", false);
			turn(x + "02", false);
			turn(x + "03", true);
			turn(x + "04", false);
			turn(x + "05", false);
			turn(x + "06", false);
			turn(x + "07", false);
			turn(x + "08", false);
			turn(x + "09", false);
			turn(x + "10", true);
			turn(x + "11", false);
			turn(x + "12", false);
			turn(x + "13", false);
			turn(x + "14", false);
			turn(x + "15", true);
			turn(x + "16", true);
		}


		function M(x) {
			turn(x + "01", false);
			turn(x + "02", false);
			turn(x + "03", true);
			turn(x + "04", true);
			turn(x + "05", false);
			turn(x + "06", true);
			turn(x + "07", true);
			turn(x + "08", false);
			turn(x + "09", false);
			turn(x + "10", true);
			turn(x + "11", false);
			turn(x + "12", false);
			turn(x + "13", false);
			turn(x + "14", true);
			turn(x + "15", false);
			turn(x + "16", false);
		}


		function N(x) {
			turn(x + "01", false);
			turn(x + "02", false);
			turn(x + "03", true);
			turn(x + "04", true);
			turn(x + "05", false);
			turn(x + "06", false);
			turn(x + "07", true);
			turn(x + "08", false);
			turn(x + "09", false);
			turn(x + "10", true);
			turn(x + "11", false);
			turn(x + "12", false);
			turn(x + "13", true);
			turn(x + "14", true);
			turn(x + "15", false);
			turn(x + "16", false);
		}


		function O(x) {
			turn(x + "01", true);
			turn(x + "02", true);
			turn(x + "03", true);
			turn(x + "04", false);
			turn(x + "05", false);
			turn(x + "06", false);
			turn(x + "07", true);
			turn(x + "08", false);
			turn(x + "09", false);
			turn(x + "10", true);
			turn(x + "11", false);
			turn(x + "12", false);
			turn(x + "13", false);
			turn(x + "14", true);
			turn(x + "15", true);
			turn(x + "16", true);
		}


		function P(x) {
			turn(x + "01", true);
			turn(x + "02", true);
			turn(x + "03", true);
			turn(x + "04", false);
			turn(x + "05", false);
			turn(x + "06", false);
			turn(x + "07", true);
			turn(x + "08", true);
			turn(x + "09", true);
			turn(x + "10", true);
			turn(x + "11", false);
			turn(x + "12", false);
			turn(x + "13", false);
			turn(x + "14", false);
			turn(x + "15", false);
			turn(x + "16", false);
		}


		function Q(x) {
			turn(x + "01", true);
			turn(x + "02", true);
			turn(x + "03", true);
			turn(x + "04", false);
			turn(x + "05", false);
			turn(x + "06", false);
			turn(x + "07", true);
			turn(x + "08", false);
			turn(x + "09", false);
			turn(x + "10", true);
			turn(x + "11", false);
			turn(x + "12", false);
			turn(x + "13", true);
			turn(x + "14", true);
			turn(x + "15", true);
			turn(x + "16", true);
		}


		function R(x) {
			turn(x + "01", true);
			turn(x + "02", true);
			turn(x + "03", true);
			turn(x + "04", false);
			turn(x + "05", false);
			turn(x + "06", false);
			turn(x + "07", true);
			turn(x + "08", true);
			turn(x + "09", true);
			turn(x + "10", true);
			turn(x + "11", false);
			turn(x + "12", false);
			turn(x + "13", true);
			turn(x + "14", false);
			turn(x + "15", false);
			turn(x + "16", false);
		}


		function S(x) {
			turn(x + "01", true);
			turn(x + "02", true);
			turn(x + "03", true);
			turn(x + "04", false);
			turn(x + "05", false);
			turn(x + "06", false);
			turn(x + "07", false);
			turn(x + "08", true);
			turn(x + "09", true);
			turn(x + "10", false);
			turn(x + "11", false);
			turn(x + "12", false);
			turn(x + "13", false);
			turn(x + "14", true);
			turn(x + "15", true);
			turn(x + "16", true);
		}


		function T(x) {
			turn(x + "01", true);
			turn(x + "02", true);
			turn(x + "03", false);
			turn(x + "04", false);
			turn(x + "05", true);
			turn(x + "06", false);
			turn(x + "07", false);
			turn(x + "08", false);
			turn(x + "09", false);
			turn(x + "10", false);
			turn(x + "11", false);
			turn(x + "12", true);
			turn(x + "13", false);
			turn(x + "14", false);
			turn(x + "15", false);
			turn(x + "16", false);
		}


		function U(x) {
			turn(x + "01", false);
			turn(x + "02", false);
			turn(x + "03", true);
			turn(x + "04", false);
			turn(x + "05", false);
			turn(x + "06", false);
			turn(x + "07", true);
			turn(x + "08", false);
			turn(x + "09", false);
			turn(x + "10", true);
			turn(x + "11", false);
			turn(x + "12", false);
			turn(x + "13", false);
			turn(x + "14", true);
			turn(x + "15", true);
			turn(x + "16", true);
		}


		function V(x) {
			turn(x + "01", false);
			turn(x + "02", false);
			turn(x + "03", true);
			turn(x + "04", false);
			turn(x + "05", false);
			turn(x + "06", true);
			turn(x + "07", false);
			turn(x + "08", false);
			turn(x + "09", false);
			turn(x + "10", true);
			turn(x + "11", true);
			turn(x + "12", false);
			turn(x + "13", false);
			turn(x + "14", false);
			turn(x + "15", false);
			turn(x + "16", false);
		}


		function W(x) {
			turn(x + "01", false);
			turn(x + "02", false);
			turn(x + "03", true);
			turn(x + "04", false);
			turn(x + "05", false);
			turn(x + "06", false);
			turn(x + "07", true);
			turn(x + "08", false);
			turn(x + "09", false);
			turn(x + "10", true);
			turn(x + "11", true);
			turn(x + "12", false);
			turn(x + "13", true);
			turn(x + "14", true);
			turn(x + "15", false);
			turn(x + "16", false);
		}


		function X(x) {
			turn(x + "01", false);
			turn(x + "02", false);
			turn(x + "03", false);
			turn(x + "04", true);
			turn(x + "05", false);
			turn(x + "06", true);
			turn(x + "07", false);
			turn(x + "08", false);
			turn(x + "09", false);
			turn(x + "10", false);
			turn(x + "11", true);
			turn(x + "12", false);
			turn(x + "13", true);
			turn(x + "14", false);
			turn(x + "15", false);
			turn(x + "16", false);
		}


		function Y(x) {
			turn(x + "01", false);
			turn(x + "02", false);
			turn(x + "03", true);
			turn(x + "04", false);
			turn(x + "05", false);
			turn(x + "06", false);
			turn(x + "07", true);
			turn(x + "08", true);
			turn(x + "09", true);
			turn(x + "10", false);
			turn(x + "11", false);
			turn(x + "12", false);
			turn(x + "13", false);
			turn(x + "14", true);
			turn(x + "15", true);
			turn(x + "16", true);
		}


		function Z(x) {
			turn(x + "01", true);
			turn(x + "02", true);
			turn(x + "03", false);
			turn(x + "04", false);
			turn(x + "05", false);
			turn(x + "06", true);
			turn(x + "07", false);
			turn(x + "08", false);
			turn(x + "09", false);
			turn(x + "10", false);
			turn(x + "11", true);
			turn(x + "12", false);
			turn(x + "13", false);
			turn(x + "14", false);
			turn(x + "15", true);
			turn(x + "16", true);
		}




		function a(x) {
			turn(x + "01", true);
			turn(x + "02", true);
			turn(x + "03", true);
			turn(x + "04", false);
			turn(x + "05", false);
			turn(x + "06", false);
			turn(x + "07", false);
			turn(x + "08", false);
			turn(x + "09", false);
			turn(x + "10", true);
			turn(x + "11", false);
			turn(x + "12", false);
			turn(x + "13", false);
			turn(x + "14", false);
			turn(x + "15", true);
			turn(x + "16", true);
		}


		function b(x) {
			turn(x + "01", true);
			turn(x + "02", true);
			turn(x + "03", true);
			turn(x + "04", false);
			turn(x + "05", false);
			turn(x + "06", false);
			turn(x + "07", false);
			turn(x + "08", false);
			turn(x + "09", false);
			turn(x + "10", true);
			turn(x + "11", false);
			turn(x + "12", false);
			turn(x + "13", false);
			turn(x + "14", false);
			turn(x + "15", true);
			turn(x + "16", true);
		}


		function c(x) {
			turn(x + "01", true);
			turn(x + "02", true);
			turn(x + "03", true);
			turn(x + "04", false);
			turn(x + "05", false);
			turn(x + "06", false);
			turn(x + "07", false);
			turn(x + "08", false);
			turn(x + "09", false);
			turn(x + "10", true);
			turn(x + "11", false);
			turn(x + "12", false);
			turn(x + "13", false);
			turn(x + "14", false);
			turn(x + "15", true);
			turn(x + "16", true);
		}


		function d(x) {
			turn(x + "01", true);
			turn(x + "02", true);
			turn(x + "03", true);
			turn(x + "04", false);
			turn(x + "05", false);
			turn(x + "06", false);
			turn(x + "07", false);
			turn(x + "08", false);
			turn(x + "09", false);
			turn(x + "10", true);
			turn(x + "11", false);
			turn(x + "12", false);
			turn(x + "13", false);
			turn(x + "14", false);
			turn(x + "15", true);
			turn(x + "16", true);
		}


		function e(x) {
			turn(x + "01", true);
			turn(x + "02", true);
			turn(x + "03", true);
			turn(x + "04", false);
			turn(x + "05", false);
			turn(x + "06", false);
			turn(x + "07", false);
			turn(x + "08", false);
			turn(x + "09", false);
			turn(x + "10", true);
			turn(x + "11", false);
			turn(x + "12", false);
			turn(x + "13", false);
			turn(x + "14", false);
			turn(x + "15", true);
			turn(x + "16", true);
		}


		function f(x) {
			turn(x + "01", true);
			turn(x + "02", true);
			turn(x + "03", true);
			turn(x + "04", false);
			turn(x + "05", false);
			turn(x + "06", false);
			turn(x + "07", false);
			turn(x + "08", false);
			turn(x + "09", false);
			turn(x + "10", true);
			turn(x + "11", false);
			turn(x + "12", false);
			turn(x + "13", false);
			turn(x + "14", false);
			turn(x + "15", true);
			turn(x + "16", true);
		}


		function g(x) {
			turn(x + "01", true);
			turn(x + "02", true);
			turn(x + "03", true);
			turn(x + "04", false);
			turn(x + "05", false);
			turn(x + "06", false);
			turn(x + "07", false);
			turn(x + "08", false);
			turn(x + "09", false);
			turn(x + "10", true);
			turn(x + "11", false);
			turn(x + "12", false);
			turn(x + "13", false);
			turn(x + "14", false);
			turn(x + "15", true);
			turn(x + "16", true);
		}


		function h(x) {
			turn(x + "01", true);
			turn(x + "02", true);
			turn(x + "03", true);
			turn(x + "04", false);
			turn(x + "05", false);
			turn(x + "06", false);
			turn(x + "07", false);
			turn(x + "08", false);
			turn(x + "09", false);
			turn(x + "10", true);
			turn(x + "11", false);
			turn(x + "12", false);
			turn(x + "13", false);
			turn(x + "14", false);
			turn(x + "15", true);
			turn(x + "16", true);
		}


		function i(x) {
			turn(x + "01", true);
			turn(x + "02", true);
			turn(x + "03", true);
			turn(x + "04", false);
			turn(x + "05", false);
			turn(x + "06", false);
			turn(x + "07", false);
			turn(x + "08", false);
			turn(x + "09", false);
			turn(x + "10", true);
			turn(x + "11", false);
			turn(x + "12", false);
			turn(x + "13", false);
			turn(x + "14", false);
			turn(x + "15", true);
			turn(x + "16", true);
		}


		function j(x) {
			turn(x + "01", true);
			turn(x + "02", true);
			turn(x + "03", true);
			turn(x + "04", false);
			turn(x + "05", false);
			turn(x + "06", false);
			turn(x + "07", false);
			turn(x + "08", false);
			turn(x + "09", false);
			turn(x + "10", true);
			turn(x + "11", false);
			turn(x + "12", false);
			turn(x + "13", false);
			turn(x + "14", false);
			turn(x + "15", true);
			turn(x + "16", true);
		}


		function k(x) {
			turn(x + "01", true);
			turn(x + "02", true);
			turn(x + "03", true);
			turn(x + "04", false);
			turn(x + "05", false);
			turn(x + "06", false);
			turn(x + "07", false);
			turn(x + "08", false);
			turn(x + "09", false);
			turn(x + "10", true);
			turn(x + "11", false);
			turn(x + "12", false);
			turn(x + "13", false);
			turn(x + "14", false);
			turn(x + "15", true);
			turn(x + "16", true);
		}


		function l(x) {
			turn(x + "01", true);
			turn(x + "02", true);
			turn(x + "03", true);
			turn(x + "04", false);
			turn(x + "05", false);
			turn(x + "06", false);
			turn(x + "07", false);
			turn(x + "08", false);
			turn(x + "09", false);
			turn(x + "10", true);
			turn(x + "11", false);
			turn(x + "12", false);
			turn(x + "13", false);
			turn(x + "14", false);
			turn(x + "15", true);
			turn(x + "16", true);
		}


		function m(x) {
			turn(x + "01", true);
			turn(x + "02", true);
			turn(x + "03", true);
			turn(x + "04", false);
			turn(x + "05", false);
			turn(x + "06", false);
			turn(x + "07", false);
			turn(x + "08", false);
			turn(x + "09", false);
			turn(x + "10", true);
			turn(x + "11", false);
			turn(x + "12", false);
			turn(x + "13", false);
			turn(x + "14", false);
			turn(x + "15", true);
			turn(x + "16", true);
		}


		function n(x) {
			turn(x + "01", true);
			turn(x + "02", true);
			turn(x + "03", true);
			turn(x + "04", false);
			turn(x + "05", false);
			turn(x + "06", false);
			turn(x + "07", false);
			turn(x + "08", false);
			turn(x + "09", false);
			turn(x + "10", true);
			turn(x + "11", false);
			turn(x + "12", false);
			turn(x + "13", false);
			turn(x + "14", false);
			turn(x + "15", true);
			turn(x + "16", true);
		}


		function o(x) {
			turn(x + "01", true);
			turn(x + "02", true);
			turn(x + "03", true);
			turn(x + "04", false);
			turn(x + "05", false);
			turn(x + "06", false);
			turn(x + "07", false);
			turn(x + "08", false);
			turn(x + "09", false);
			turn(x + "10", true);
			turn(x + "11", false);
			turn(x + "12", false);
			turn(x + "13", false);
			turn(x + "14", false);
			turn(x + "15", true);
			turn(x + "16", true);
		}


		function p(x) {
			turn(x + "01", true);
			turn(x + "02", true);
			turn(x + "03", true);
			turn(x + "04", false);
			turn(x + "05", false);
			turn(x + "06", false);
			turn(x + "07", false);
			turn(x + "08", false);
			turn(x + "09", false);
			turn(x + "10", true);
			turn(x + "11", false);
			turn(x + "12", false);
			turn(x + "13", false);
			turn(x + "14", false);
			turn(x + "15", true);
			turn(x + "16", true);
		}


		function q(x) {
			turn(x + "01", true);
			turn(x + "02", true);
			turn(x + "03", true);
			turn(x + "04", false);
			turn(x + "05", false);
			turn(x + "06", false);
			turn(x + "07", false);
			turn(x + "08", false);
			turn(x + "09", false);
			turn(x + "10", true);
			turn(x + "11", false);
			turn(x + "12", false);
			turn(x + "13", false);
			turn(x + "14", false);
			turn(x + "15", true);
			turn(x + "16", true);
		}


		function r(x) {
			turn(x + "01", true);
			turn(x + "02", true);
			turn(x + "03", true);
			turn(x + "04", false);
			turn(x + "05", false);
			turn(x + "06", false);
			turn(x + "07", false);
			turn(x + "08", false);
			turn(x + "09", false);
			turn(x + "10", true);
			turn(x + "11", false);
			turn(x + "12", false);
			turn(x + "13", false);
			turn(x + "14", false);
			turn(x + "15", true);
			turn(x + "16", true);
		}


		function s(x) {
			turn(x + "01", true);
			turn(x + "02", true);
			turn(x + "03", true);
			turn(x + "04", false);
			turn(x + "05", false);
			turn(x + "06", false);
			turn(x + "07", false);
			turn(x + "08", false);
			turn(x + "09", false);
			turn(x + "10", true);
			turn(x + "11", false);
			turn(x + "12", false);
			turn(x + "13", false);
			turn(x + "14", false);
			turn(x + "15", true);
			turn(x + "16", true);
		}


		function t(x) {
			turn(x + "01", true);
			turn(x + "02", true);
			turn(x + "03", true);
			turn(x + "04", false);
			turn(x + "05", false);
			turn(x + "06", false);
			turn(x + "07", false);
			turn(x + "08", false);
			turn(x + "09", false);
			turn(x + "10", true);
			turn(x + "11", false);
			turn(x + "12", false);
			turn(x + "13", false);
			turn(x + "14", false);
			turn(x + "15", true);
			turn(x + "16", true);
		}


		function u(x) {
			turn(x + "01", true);
			turn(x + "02", true);
			turn(x + "03", true);
			turn(x + "04", false);
			turn(x + "05", false);
			turn(x + "06", false);
			turn(x + "07", false);
			turn(x + "08", false);
			turn(x + "09", false);
			turn(x + "10", true);
			turn(x + "11", false);
			turn(x + "12", false);
			turn(x + "13", false);
			turn(x + "14", false);
			turn(x + "15", true);
			turn(x + "16", true);
		}


		function v(x) {
			turn(x + "01", true);
			turn(x + "02", true);
			turn(x + "03", true);
			turn(x + "04", false);
			turn(x + "05", false);
			turn(x + "06", false);
			turn(x + "07", false);
			turn(x + "08", false);
			turn(x + "09", false);
			turn(x + "10", true);
			turn(x + "11", false);
			turn(x + "12", false);
			turn(x + "13", false);
			turn(x + "14", false);
			turn(x + "15", true);
			turn(x + "16", true);
		}


		function w(x) {
			turn(x + "01", true);
			turn(x + "02", true);
			turn(x + "03", true);
			turn(x + "04", false);
			turn(x + "05", false);
			turn(x + "06", false);
			turn(x + "07", false);
			turn(x + "08", false);
			turn(x + "09", false);
			turn(x + "10", true);
			turn(x + "11", false);
			turn(x + "12", false);
			turn(x + "13", false);
			turn(x + "14", false);
			turn(x + "15", true);
			turn(x + "16", true);
		}


		function x(x) {
			turn(x + "01", true);
			turn(x + "02", true);
			turn(x + "03", true);
			turn(x + "04", false);
			turn(x + "05", false);
			turn(x + "06", false);
			turn(x + "07", false);
			turn(x + "08", false);
			turn(x + "09", false);
			turn(x + "10", true);
			turn(x + "11", false);
			turn(x + "12", false);
			turn(x + "13", false);
			turn(x + "14", false);
			turn(x + "15", true);
			turn(x + "16", true);
		}


		function y(x) {
			turn(x + "01", true);
			turn(x + "02", true);
			turn(x + "03", true);
			turn(x + "04", false);
			turn(x + "05", false);
			turn(x + "06", false);
			turn(x + "07", false);
			turn(x + "08", false);
			turn(x + "09", false);
			turn(x + "10", true);
			turn(x + "11", false);
			turn(x + "12", false);
			turn(x + "13", false);
			turn(x + "14", false);
			turn(x + "15", true);
			turn(x + "16", true);
		}


		function z(x) {
			turn(x + "01", true);
			turn(x + "02", true);
			turn(x + "03", true);
			turn(x + "04", false);
			turn(x + "05", false);
			turn(x + "06", false);
			turn(x + "07", false);
			turn(x + "08", false);
			turn(x + "09", false);
			turn(x + "10", true);
			turn(x + "11", false);
			turn(x + "12", false);
			turn(x + "13", false);
			turn(x + "14", false);
			turn(x + "15", true);
			turn(x + "16", true);
		}
		]]>
	</script>
</svg>